<svg xmlns="http://www.w3.org/2000/svg" id="svg1" width="37mm" height="37mm" version="1.1" viewBox="0 0 37 37"><defs><rect id="m" width="1" height="1" fill="#000"/></defs><g id="background"><rect width="37" height="37" x="0" y="0" fill="#fff"/></g><g id="modules" transform="translate(4 4)"><use x="0" y="0" href="#m"/><use x="1" y="0" href="#m"/><use x="2" y="0" href="#m"/><use x="3" y="0" href="#m"/><use x="4" y="0" href="#m"/><use x="5" y="0" href="#m"/><use x="6" y="0" href="#m"/><use x="9" y="0" href="#m"/><use x="14" y="0" href="#m"/><use x="16" y="0" href="#m"/><use x="17" y="0" href="#m"/><use x="18" y="0" href="#m"/><use x="19" y="0" href="#m"/><use x="20" y="0" href="#m"/><use x="22" y="0" href="#m"/><use x="23" y="0" href="#m"/><use x="24" y="0" href="#m"/><use x="25" y="0" href="#m"/><use x="26" y="0" href="#m"/><use x="27" y="0" href="#m"/><use x="28" y="0" href="#m"/><use x="0" y="1" href="#m"/><use x="6" y="1" href="#m"/><use x="8" y="1" href="#m"/><use x="9" y="1" href="#m"/><use x="11" y="1" href="#m"/><use x="12" y="1" href="#m"/><use x="13" y="1" href="#m"/><use x="15" y="1" href="#m"/><use x="16" y="1" href="#m"/><use x="20" y="1" href="#m"/><use x="22" y="1" href="#m"/><use x="28" y="1" href="#m"/><use x="0" y="2" href="#m"/><use x="2" y="2" href="#m"/><use x="3" y="2" href="#m"/><use x="4" y="2" href="#m"/><use x="6" y="2" href="#m"/><use x="9" y="2" href="#m"/><use x="10" y="2" href="#m"/><use x="11" y="2" href="#m"/><use x="14" y="2" href="#m"/><use x="15" y="2" href="#m"/><use x="22" y="2" href="#m"/><use x="24" y="2" href="#m"/><use x="25" y="2" href="#m"/><use x="26" y="2" href="#m"/><use x="28" y="2" href="#m"/><use x="0" y="3" href="#m"/><use x="2" y="3" href="#m"/><use x="3" y="3" href="#m"/><use x="4" y="3" href="#m"/><use x="6" y="3" href="#m"/><use x="8" y="3" href="#m"/><use x="9" y="3" href="#m"/><use x="11" y="3" href="#m"/><use x="12" y="3" href="#m"/><use x="13" y="3" href="#m"/><use x="14" y="3" href="#m"/><use x="16" y="3" href="#m"/><use x="17" y="3" href="#m"/><use x="22" y="3" href="#m"/><use x="24" y="3" href="#m"/><use x="25" y="3" href="#m"/><use x="26" y="3" href="#m"/><use x="28" y="3" href="#m"/><use x="0" y="4" href="#m"/><use x="2" y="4" href="#m"/><use x="3" y="4" href="#m"/><use x="4" y="4" href="#m"/><use x="6" y="4" href="#m"/><use x="10" y="4" href="#m"/><use x="12" y="4" href="#m"/><use x="16" y="4" href="#m"/><use x="18" y="4" href="#m"/><use x="19" y="4" href="#m"/><use x="20" y="4" href="#m"/><use x="22" y="4" href="#m"/><use x="24" y="4" href="#m"/><use x="25" y="4" href="#m"/><use x="26" y="4" href="#m"/><use x="28" y="4" href="#m"/><use x="0" y="5" href="#m"/><use x="6" y="5" href="#m"/><use x="8" y="5" href="#m"/><use x="10" y="5" href="#m"/><use x="14" y="5" href="#m"/><use x="15" y="5" href="#m"/><use x="17" y="5" href="#m"/><use x="18" y="5" href="#m"/><use x="22" y="5" href="#m"/><use x="28" y="5" href="#m"/><use x="0" y="6" href="#m"/><use x="1" y="6" href="#m"/><use x="2" y="6" href="#m"/><use x="3" y="6" href="#m"/><use x="4" y="6" href="#m"/><use x="5" y="6" href="#m"/><use x="6" y="6" href="#m"/><use x="8" y="6" href="#m"/><use x="10" y="6" href="#m"/><use x="12" y="6" href="#m"/><use x="14" y="6" href="#m"/><use x="16" y="6" href="#m"/><use x="18" y="6" href="#m"/><use x="20" y="6" href="#m"/><use x="22" y="6" href="#m"/><use x="23" y="6" href="#m"/><use x="24" y="6" href="#m"/><use x="25" y="6" href="#m"/><use x="26" y="6" href="#m"/><use x="27" y="6" href="#m"/><use x="28" y="6" href="#m"/><use x="14" y="7" href="#m"/><use x="15" y="7" href="#m"/><use x="18" y="7" href="#m"/><use x="19" y="7" href="#m"/><use x="0" y="8" href="#m"/><use x="1" y="8" href="#m"/><use x="2" y="8" href="#m"/><use x="3" y="8" href="#m"/><use x="4" y="8" href="#m"/><use x="6" y="8" href="#m"/><use x="7" y="8" href="#m"/><use x="8" y="8" href="#m"/><use x="9" y="8" href="#m"/><use x="10" y="8" href="#m"/><use x="12" y="8" href="#m"/><use x="13" y="8" href="#m"/><use x="14" y="8" href="#m"/><use x="17" y="8" href="#m"/><use x="20" y="8" href="#m"/><use x="21" y="8" href="#m"/><use x="23" y="8" href="#m"/><use x="25" y="8" href="#m"/><use x="27" y="8" href="#m"/><use x="2" y="9" href="#m"/><use x="5" y="9" href="#m"/><use x="7" y="9" href="#m"/><use x="8" y="9" href="#m"/><use x="9" y="9" href="#m"/><use x="11" y="9" href="#m"/><use x="13" y="9" href="#m"/><use x="16" y="9" href="#m"/><use x="17" y="9" href="#m"/><use x="18" y="9" href="#m"/><use x="19" y="9" href="#m"/><use x="20" y="9" href="#m"/><use x="22" y="9" href="#m"/><use x="23" y="9" href="#m"/><use x="24" y="9" href="#m"/><use x="25" y="9" href="#m"/><use x="26" y="9" href="#m"/><use x="27" y="9" href="#m"/><use x="28" y="9" href="#m"/><use x="3" y="10" href="#m"/><use x="4" y="10" href="#m"/><use x="5" y="10" href="#m"/><use x="6" y="10" href="#m"/><use x="7" y="10" href="#m"/><use x="8" y="10" href="#m"/><use x="9" y="10" href="#m"/><use x="12" y="10" href="#m"/><use x="14" y="10" href="#m"/><use x="15" y="10" href="#m"/><use x="20" y="10" href="#m"/><use x="23" y="10" href="#m"/><use x="24" y="10" href="#m"/><use x="25" y="10" href="#m"/><use x="26" y="10" href="#m"/><use x="3" y="11" href="#m"/><use x="5" y="11" href="#m"/><use x="9" y="11" href="#m"/><use x="10" y="11" href="#m"/><use x="15" y="11" href="#m"/><use x="16" y="11" href="#m"/><use x="18" y="11" href="#m"/><use x="19" y="11" href="#m"/><use x="20" y="11" href="#m"/><use x="21" y="11" href="#m"/><use x="25" y="11" href="#m"/><use x="28" y="11" href="#m"/><use x="0" y="12" href="#m"/><use x="4" y="12" href="#m"/><use x="5" y="12" href="#m"/><use x="6" y="12" href="#m"/><use x="9" y="12" href="#m"/><use x="11" y="12" href="#m"/><use x="12" y="12" href="#m"/><use x="13" y="12" href="#m"/><use x="14" y="12" href="#m"/><use x="15" y="12" href="#m"/><use x="16" y="12" href="#m"/><use x="17" y="12" href="#m"/><use x="19" y="12" href="#m"/><use x="25" y="12" href="#m"/><use x="26" y="12" href="#m"/><use x="1" y="13" href="#m"/><use x="2" y="13" href="#m"/><use x="4" y="13" href="#m"/><use x="9" y="13" href="#m"/><use x="10" y="13" href="#m"/><use x="11" y="13" href="#m"/><use x="16" y="13" href="#m"/><use x="18" y="13" href="#m"/><use x="19" y="13" href="#m"/><use x="21" y="13" href="#m"/><use x="22" y="13" href="#m"/><use x="23" y="13" href="#m"/><use x="24" y="13" href="#m"/><use x="25" y="13" href="#m"/><use x="27" y="13" href="#m"/><use x="28" y="13" href="#m"/><use x="1" y="14" href="#m"/><use x="2" y="14" href="#m"/><use x="5" y="14" href="#m"/><use x="6" y="14" href="#m"/><use x="7" y="14" href="#m"/><use x="9" y="14" href="#m"/><use x="10" y="14" href="#m"/><use x="12" y="14" href="#m"/><use x="13" y="14" href="#m"/><use x="14" y="14" href="#m"/><use x="15" y="14" href="#m"/><use x="16" y="14" href="#m"/><use x="20" y="14" href="#m"/><use x="21" y="14" href="#m"/><use x="22" y="14" href="#m"/><use x="23" y="14" href="#m"/><use x="25" y="14" href="#m"/><use x="0" y="15" href="#m"/><use x="1" y="15" href="#m"/><use x="10" y="15" href="#m"/><use x="11" y="15" href="#m"/><use x="12" y="15" href="#m"/><use x="15" y="15" href="#m"/><use x="16" y="15" href="#m"/><use x="19" y="15" href="#m"/><use x="20" y="15" href="#m"/><use x="21" y="15" href="#m"/><use x="23" y="15" href="#m"/><use x="24" y="15" href="#m"/><use x="25" y="15" href="#m"/><use x="0" y="16" href="#m"/><use x="2" y="16" href="#m"/><use x="3" y="16" href="#m"/><use x="5" y="16" href="#m"/><use x="6" y="16" href="#m"/><use x="8" y="16" href="#m"/><use x="10" y="16" href="#m"/><use x="12" y="16" href="#m"/><use x="13" y="16" href="#m"/><use x="17" y="16" href="#m"/><use x="19" y="16" href="#m"/><use x="26" y="16" href="#m"/><use x="27" y="16" href="#m"/><use x="0" y="17" href="#m"/><use x="2" y="17" href="#m"/><use x="7" y="17" href="#m"/><use x="9" y="17" href="#m"/><use x="11" y="17" href="#m"/><use x="13" y="17" href="#m"/><use x="19" y="17" href="#m"/><use x="20" y="17" href="#m"/><use x="22" y="17" href="#m"/><use x="23" y="17" href="#m"/><use x="24" y="17" href="#m"/><use x="25" y="17" href="#m"/><use x="26" y="17" href="#m"/><use x="27" y="17" href="#m"/><use x="28" y="17" href="#m"/><use x="0" y="18" href="#m"/><use x="2" y="18" href="#m"/><use x="3" y="18" href="#m"/><use x="4" y="18" href="#m"/><use x="6" y="18" href="#m"/><use x="7" y="18" href="#m"/><use x="9" y="18" href="#m"/><use x="14" y="18" href="#m"/><use x="15" y="18" href="#m"/><use x="17" y="18" href="#m"/><use x="18" y="18" href="#m"/><use x="20" y="18" href="#m"/><use x="0" y="19" href="#m"/><use x="2" y="19" href="#m"/><use x="3" y="19" href="#m"/><use x="9" y="19" href="#m"/><use x="10" y="19" href="#m"/><use x="12" y="19" href="#m"/><use x="14" y="19" href="#m"/><use x="15" y="19" href="#m"/><use x="23" y="19" href="#m"/><use x="25" y="19" href="#m"/><use x="28" y="19" href="#m"/><use x="0" y="20" href="#m"/><use x="4" y="20" href="#m"/><use x="6" y="20" href="#m"/><use x="7" y="20" href="#m"/><use x="8" y="20" href="#m"/><use x="11" y="20" href="#m"/><use x="12" y="20" href="#m"/><use x="13" y="20" href="#m"/><use x="14" y="20" href="#m"/><use x="15" y="20" href="#m"/><use x="16" y="20" href="#m"/><use x="17" y="20" href="#m"/><use x="18" y="20" href="#m"/><use x="19" y="20" href="#m"/><use x="20" y="20" href="#m"/><use x="21" y="20" href="#m"/><use x="22" y="20" href="#m"/><use x="23" y="20" href="#m"/><use x="24" y="20" href="#m"/><use x="26" y="20" href="#m"/><use x="28" y="20" href="#m"/><use x="8" y="21" href="#m"/><use x="9" y="21" href="#m"/><use x="11" y="21" href="#m"/><use x="16" y="21" href="#m"/><use x="17" y="21" href="#m"/><use x="18" y="21" href="#m"/><use x="20" y="21" href="#m"/><use x="24" y="21" href="#m"/><use x="27" y="21" href="#m"/><use x="28" y="21" href="#m"/><use x="0" y="22" href="#m"/><use x="1" y="22" href="#m"/><use x="2" y="22" href="#m"/><use x="3" y="22" href="#m"/><use x="4" y="22" href="#m"/><use x="5" y="22" href="#m"/><use x="6" y="22" href="#m"/><use x="8" y="22" href="#m"/><use x="9" y="22" href="#m"/><use x="12" y="22" href="#m"/><use x="13" y="22" href="#m"/><use x="15" y="22" href="#m"/><use x="16" y="22" href="#m"/><use x="17" y="22" href="#m"/><use x="19" y="22" href="#m"/><use x="20" y="22" href="#m"/><use x="22" y="22" href="#m"/><use x="24" y="22" href="#m"/><use x="25" y="22" href="#m"/><use x="0" y="23" href="#m"/><use x="6" y="23" href="#m"/><use x="14" y="23" href="#m"/><use x="15" y="23" href="#m"/><use x="16" y="23" href="#m"/><use x="19" y="23" href="#m"/><use x="20" y="23" href="#m"/><use x="24" y="23" href="#m"/><use x="25" y="23" href="#m"/><use x="0" y="24" href="#m"/><use x="2" y="24" href="#m"/><use x="3" y="24" href="#m"/><use x="4" y="24" href="#m"/><use x="6" y="24" href="#m"/><use x="8" y="24" href="#m"/><use x="9" y="24" href="#m"/><use x="10" y="24" href="#m"/><use x="12" y="24" href="#m"/><use x="13" y="24" href="#m"/><use x="14" y="24" href="#m"/><use x="15" y="24" href="#m"/><use x="17" y="24" href="#m"/><use x="20" y="24" href="#m"/><use x="21" y="24" href="#m"/><use x="22" y="24" href="#m"/><use x="23" y="24" href="#m"/><use x="24" y="24" href="#m"/><use x="25" y="24" href="#m"/><use x="26" y="24" href="#m"/><use x="27" y="24" href="#m"/><use x="0" y="25" href="#m"/><use x="2" y="25" href="#m"/><use x="3" y="25" href="#m"/><use x="4" y="25" href="#m"/><use x="6" y="25" href="#m"/><use x="8" y="25" href="#m"/><use x="9" y="25" href="#m"/><use x="10" y="25" href="#m"/><use x="11" y="25" href="#m"/><use x="14" y="25" href="#m"/><use x="16" y="25" href="#m"/><use x="17" y="25" href="#m"/><use x="18" y="25" href="#m"/><use x="20" y="25" href="#m"/><use x="28" y="25" href="#m"/><use x="0" y="26" href="#m"/><use x="2" y="26" href="#m"/><use x="3" y="26" href="#m"/><use x="4" y="26" href="#m"/><use x="6" y="26" href="#m"/><use x="8" y="26" href="#m"/><use x="10" y="26" href="#m"/><use x="13" y="26" href="#m"/><use x="15" y="26" href="#m"/><use x="16" y="26" href="#m"/><use x="17" y="26" href="#m"/><use x="18" y="26" href="#m"/><use x="19" y="26" href="#m"/><use x="20" y="26" href="#m"/><use x="21" y="26" href="#m"/><use x="22" y="26" href="#m"/><use x="24" y="26" href="#m"/><use x="26" y="26" href="#m"/><use x="27" y="26" href="#m"/><use x="0" y="27" href="#m"/><use x="6" y="27" href="#m"/><use x="8" y="27" href="#m"/><use x="9" y="27" href="#m"/><use x="15" y="27" href="#m"/><use x="16" y="27" href="#m"/><use x="20" y="27" href="#m"/><use x="21" y="27" href="#m"/><use x="24" y="27" href="#m"/><use x="25" y="27" href="#m"/><use x="27" y="27" href="#m"/><use x="0" y="28" href="#m"/><use x="1" y="28" href="#m"/><use x="2" y="28" href="#m"/><use x="3" y="28" href="#m"/><use x="4" y="28" href="#m"/><use x="5" y="28" href="#m"/><use x="6" y="28" href="#m"/><use x="8" y="28" href="#m"/><use x="10" y="28" href="#m"/><use x="12" y="28" href="#m"/><use x="13" y="28" href="#m"/><use x="14" y="28" href="#m"/><use x="15" y="28" href="#m"/><use x="17" y="28" href="#m"/><use x="21" y="28" href="#m"/><use x="22" y="28" href="#m"/><use x="23" y="28" href="#m"/><use x="24" y="28" href="#m"/><use x="25" y="28" href="#m"/><use x="26" y="28" href="#m"/></g></svg>