<?xml version="1.0" encoding="UTF-8" standalone="no"?>
<!-- Generated by Command-line QR Code generator (v1.3.0) -->
<svg width="37mm" height="37mm" viewBox="0 0 37 37" version="1.1" id="svg1" xmlns="http://www.w3.org/2000/svg" xmlns:svg="http://www.w3.org/2000/svg">
<g id="background"><rect fill="white" width="37" height="37" x="0" y="0"/></g>
<g id="modules" transform="translate(4 4)">
<rect fill="black" width="1" height="1" x="0" y="0"/>
<rect fill="black" width="1" height="1" x="1" y="0"/>
<rect fill="black" width="1" height="1" x="2" y="0"/>
<rect fill="black" width="1" height="1" x="3" y="0"/>
<rect fill="black" width="1" height="1" x="4" y="0"/>
<rect fill="black" width="1" height="1" x="5" y="0"/>
<rect fill="black" width="1" height="1" x="6" y="0"/>
<rect fill="black" width="1" height="1" x="9" y="0"/>
<rect fill="black" width="1" height="1" x="12" y="0"/>
<rect fill="black" width="1" height="1" x="14" y="0"/>
<rect fill="black" width="1" height="1" x="16" y="0"/>
<rect fill="black" width="1" height="1" x="17" y="0"/>
<rect fill="black" width="1" height="1" x="18" y="0"/>
<rect fill="black" width="1" height="1" x="19" y="0"/>
<rect fill="black" width="1" height="1" x="20" y="0"/>
<rect fill="black" width="1" height="1" x="22" y="0"/>
<rect fill="black" width="1" height="1" x="23" y="0"/>
<rect fill="black" width="1" height="1" x="24" y="0"/>
<rect fill="black" width="1" height="1" x="25" y="0"/>
<rect fill="black" width="1" height="1" x="26" y="0"/>
<rect fill="black" width="1" height="1" x="27" y="0"/>
<rect fill="black" width="1" height="1" x="28" y="0"/>
<rect fill="black" width="1" height="1" x="0" y="1"/>
<rect fill="black" width="1" height="1" x="6" y="1"/>
<rect fill="black" width="1" height="1" x="8" y="1"/>
<rect fill="black" width="1" height="1" x="9" y="1"/>
<rect fill="black" width="1" height="1" x="12" y="1"/>
<rect fill="black" width="1" height="1" x="13" y="1"/>
<rect fill="black" width="1" height="1" x="15" y="1"/>
<rect fill="black" width="1" height="1" x="16" y="1"/>
<rect fill="black" width="1" height="1" x="20" y="1"/>
<rect fill="black" width="1" height="1" x="22" y="1"/>
<rect fill="black" width="1" height="1" x="28" y="1"/>
<rect fill="black" width="1" height="1" x="0" y="2"/>
<rect fill="black" width="1" height="1" x="2" y="2"/>
<rect fill="black" width="1" height="1" x="3" y="2"/>
<rect fill="black" width="1" height="1" x="4" y="2"/>
<rect fill="black" width="1" height="1" x="6" y="2"/>
<rect fill="black" width="1" height="1" x="9" y="2"/>
<rect fill="black" width="1" height="1" x="12" y="2"/>
<rect fill="black" width="1" height="1" x="14" y="2"/>
<rect fill="black" width="1" height="1" x="15" y="2"/>
<rect fill="black" width="1" height="1" x="22" y="2"/>
<rect fill="black" width="1" height="1" x="24" y="2"/>
<rect fill="black" width="1" height="1" x="25" y="2"/>
<rect fill="black" width="1" height="1" x="26" y="2"/>
<rect fill="black" width="1" height="1" x="28" y="2"/>
<rect fill="black" width="1" height="1" x="0" y="3"/>
<rect fill="black" width="1" height="1" x="2" y="3"/>
<rect fill="black" width="1" height="1" x="3" y="3"/>
<rect fill="black" width="1" height="1" x="4" y="3"/>
<rect fill="black" width="1" height="1" x="6" y="3"/>
<rect fill="black" width="1" height="1" x="8" y="3"/>
<rect fill="black" width="1" height="1" x="9" y="3"/>
<rect fill="black" width="1" height="1" x="12" y="3"/>
<rect fill="black" width="1" height="1" x="13" y="3"/>
<rect fill="black" width="1" height="1" x="14" y="3"/>
<rect fill="black" width="1" height="1" x="16" y="3"/>
<rect fill="black" width="1" height="1" x="17" y="3"/>
<rect fill="black" width="1" height="1" x="22" y="3"/>
<rect fill="black" width="1" height="1" x="24" y="3"/>
<rect fill="black" width="1" height="1" x="25" y="3"/>
<rect fill="black" width="1" height="1" x="26" y="3"/>
<rect fill="black" width="1" height="1" x="28" y="3"/>
<rect fill="black" width="1" height="1" x="0" y="4"/>
<rect fill="black" width="1" height="1" x="2" y="4"/>
<rect fill="black" width="1" height="1" x="3" y="4"/>
<rect fill="black" width="1" height="1" x="4" y="4"/>
<rect fill="black" width="1" height="1" x="6" y="4"/>
<rect fill="black" width="1" height="1" x="9" y="4"/>
<rect fill="black" width="1" height="1" x="12" y="4"/>
<rect fill="black" width="1" height="1" x="16" y="4"/>
<rect fill="black" width="1" height="1" x="18" y="4"/>
<rect fill="black" width="1" height="1" x="19" y="4"/>
<rect fill="black" width="1" height="1" x="20" y="4"/>
<rect fill="black" width="1" height="1" x="22" y="4"/>
<rect fill="black" width="1" height="1" x="24" y="4"/>
<rect fill="black" width="1" height="1" x="25" y="4"/>
<rect fill="black" width="1" height="1" x="26" y="4"/>
<rect fill="black" width="1" height="1" x="28" y="4"/>
<rect fill="black" width="1" height="1" x="0" y="5"/>
<rect fill="black" width="1" height="1" x="6" y="5"/>
<rect fill="black" width="1" height="1" x="8" y="5"/>
<rect fill="black" width="1" height="1" x="9" y="5"/>
<rect fill="black" width="1" height="1" x="14" y="5"/>
<rect fill="black" width="1" height="1" x="15" y="5"/>
<rect fill="black" width="1" height="1" x="17" y="5"/>
<rect fill="black" width="1" height="1" x="18" y="5"/>
<rect fill="black" width="1" height="1" x="22" y="5"/>
<rect fill="black" width="1" height="1" x="28" y="5"/>
<rect fill="black" width="1" height="1" x="0" y="6"/>
<rect fill="black" width="1" height="1" x="1" y="6"/>
<rect fill="black" width="1" height="1" x="2" y="6"/>
<rect fill="black" width="1" height="1" x="3" y="6"/>
<rect fill="black" width="1" height="1" x="4" y="6"/>
<rect fill="black" width="1" height="1" x="5" y="6"/>
<rect fill="black" width="1" height="1" x="6" y="6"/>
<rect fill="black" width="1" height="1" x="8" y="6"/>
<rect fill="black" width="1" height="1" x="10" y="6"/>
<rect fill="black" width="1" height="1" x="12" y="6"/>
<rect fill="black" width="1" height="1" x="14" y="6"/>
<rect fill="black" width="1" height="1" x="16" y="6"/>
<rect fill="black" width="1" height="1" x="18" y="6"/>
<rect fill="black" width="1" height="1" x="20" y="6"/>
<rect fill="black" width="1" height="1" x="22" y="6"/>
<rect fill="black" width="1" height="1" x="23" y="6"/>
<rect fill="black" width="1" height="1" x="24" y="6"/>
<rect fill="black" width="1" height="1" x="25" y="6"/>
<rect fill="black" width="1" height="1" x="26" y="6"/>
<rect fill="black" width="1" height="1" x="27" y="6"/>
<rect fill="black" width="1" height="1" x="28" y="6"/>
<rect fill="black" width="1" height="1" x="9" y="7"/>
<rect fill="black" width="1" height="1" x="14" y="7"/>
<rect fill="black" width="1" height="1" x="15" y="7"/>
<rect fill="black" width="1" height="1" x="18" y="7"/>
<rect fill="black" width="1" height="1" x="19" y="7"/>
<rect fill="black" width="1" height="1" x="0" y="8"/>
<rect fill="black" width="1" height="1" x="1" y="8"/>
<rect fill="black" width="1" height="1" x="2" y="8"/>
<rect fill="black" width="1" height="1" x="3" y="8"/>
<rect fill="black" width="1" height="1" x="4" y="8"/>
<rect fill="black" width="1" height="1" x="6" y="8"/>
<rect fill="black" width="1" height="1" x="7" y="8"/>
<rect fill="black" width="1" height="1" x="8" y="8"/>
<rect fill="black" width="1" height="1" x="9" y="8"/>
<rect fill="black" width="1" height="1" x="12" y="8"/>
<rect fill="black" width="1" height="1" x="13" y="8"/>
<rect fill="black" width="1" height="1" x="14" y="8"/>
<rect fill="black" width="1" height="1" x="17" y="8"/>
<rect fill="black" width="1" height="1" x="20" y="8"/>
<rect fill="black" width="1" height="1" x="21" y="8"/>
<rect fill="black" width="1" height="1" x="23" y="8"/>
<rect fill="black" width="1" height="1" x="25" y="8"/>
<rect fill="black" width="1" height="1" x="27" y="8"/>
<rect fill="black" width="1" height="1" x="0" y="9"/>
<rect fill="black" width="1" height="1" x="1" y="9"/>
<rect fill="black" width="1" height="1" x="2" y="9"/>
<rect fill="black" width="1" height="1" x="3" y="9"/>
<rect fill="black" width="1" height="1" x="4" y="9"/>
<rect fill="black" width="1" height="1" x="7" y="9"/>
<rect fill="black" width="1" height="1" x="9" y="9"/>
<rect fill="black" width="1" height="1" x="11" y="9"/>
<rect fill="black" width="1" height="1" x="13" y="9"/>
<rect fill="black" width="1" height="1" x="16" y="9"/>
<rect fill="black" width="1" height="1" x="17" y="9"/>
<rect fill="black" width="1" height="1" x="18" y="9"/>
<rect fill="black" width="1" height="1" x="19" y="9"/>
<rect fill="black" width="1" height="1" x="20" y="9"/>
<rect fill="black" width="1" height="1" x="22" y="9"/>
<rect fill="black" width="1" height="1" x="23" y="9"/>
<rect fill="black" width="1" height="1" x="24" y="9"/>
<rect fill="black" width="1" height="1" x="25" y="9"/>
<rect fill="black" width="1" height="1" x="26" y="9"/>
<rect fill="black" width="1" height="1" x="27" y="9"/>
<rect fill="black" width="1" height="1" x="28" y="9"/>
<rect fill="black" width="1" height="1" x="1" y="10"/>
<rect fill="black" width="1" height="1" x="2" y="10"/>
<rect fill="black" width="1" height="1" x="3" y="10"/>
<rect fill="black" width="1" height="1" x="5" y="10"/>
<rect fill="black" width="1" height="1" x="6" y="10"/>
<rect fill="black" width="1" height="1" x="8" y="10"/>
<rect fill="black" width="1" height="1" x="9" y="10"/>
<rect fill="black" width="1" height="1" x="12" y="10"/>
<rect fill="black" width="1" height="1" x="14" y="10"/>
<rect fill="black" width="1" height="1" x="15" y="10"/>
<rect fill="black" width="1" height="1" x="20" y="10"/>
<rect fill="black" width="1" height="1" x="23" y="10"/>
<rect fill="black" width="1" height="1" x="24" y="10"/>
<rect fill="black" width="1" height="1" x="25" y="10"/>
<rect fill="black" width="1" height="1" x="26" y="10"/>
<rect fill="black" width="1" height="1" x="0" y="11"/>
<rect fill="black" width="1" height="1" x="1" y="11"/>
<rect fill="black" width="1" height="1" x="2" y="11"/>
<rect fill="black" width="1" height="1" x="8" y="11"/>
<rect fill="black" width="1" height="1" x="9" y="11"/>
<rect fill="black" width="1" height="1" x="15" y="11"/>
<rect fill="black" width="1" height="1" x="16" y="11"/>
<rect fill="black" width="1" height="1" x="18" y="11"/>
<rect fill="black" width="1" height="1" x="19" y="11"/>
<rect fill="black" width="1" height="1" x="20" y="11"/>
<rect fill="black" width="1" height="1" x="21" y="11"/>
<rect fill="black" width="1" height="1" x="25" y="11"/>
<rect fill="black" width="1" height="1" x="28" y="11"/>
<rect fill="black" width="1" height="1" x="1" y="12"/>
<rect fill="black" width="1" height="1" x="4" y="12"/>
<rect fill="black" width="1" height="1" x="6" y="12"/>
<rect fill="black" width="1" height="1" x="7" y="12"/>
<rect fill="black" width="1" height="1" x="9" y="12"/>
<rect fill="black" width="1" height="1" x="11" y="12"/>
<rect fill="black" width="1" height="1" x="12" y="12"/>
<rect fill="black" width="1" height="1" x="13" y="12"/>
<rect fill="black" width="1" height="1" x="14" y="12"/>
<rect fill="black" width="1" height="1" x="15" y="12"/>
<rect fill="black" width="1" height="1" x="16" y="12"/>
<rect fill="black" width="1" height="1" x="17" y="12"/>
<rect fill="black" width="1" height="1" x="19" y="12"/>
<rect fill="black" width="1" height="1" x="25" y="12"/>
<rect fill="black" width="1" height="1" x="26" y="12"/>
<rect fill="black" width="1" height="1" x="0" y="13"/>
<rect fill="black" width="1" height="1" x="2" y="13"/>
<rect fill="black" width="1" height="1" x="4" y="13"/>
<rect fill="black" width="1" height="1" x="11" y="13"/>
<rect fill="black" width="1" height="1" x="16" y="13"/>
<rect fill="black" width="1" height="1" x="18" y="13"/>
<rect fill="black" width="1" height="1" x="19" y="13"/>
<rect fill="black" width="1" height="1" x="21" y="13"/>
<rect fill="black" width="1" height="1" x="22" y="13"/>
<rect fill="black" width="1" height="1" x="23" y="13"/>
<rect fill="black" width="1" height="1" x="24" y="13"/>
<rect fill="black" width="1" height="1" x="25" y="13"/>
<rect fill="black" width="1" height="1" x="27" y="13"/>
<rect fill="black" width="1" height="1" x="28" y="13"/>
<rect fill="black" width="1" height="1" x="1" y="14"/>
<rect fill="black" width="1" height="1" x="4" y="14"/>
<rect fill="black" width="1" height="1" x="6" y="14"/>
<rect fill="black" width="1" height="1" x="7" y="14"/>
<rect fill="black" width="1" height="1" x="8" y="14"/>
<rect fill="black" width="1" height="1" x="12" y="14"/>
<rect fill="black" width="1" height="1" x="13" y="14"/>
<rect fill="black" width="1" height="1" x="14" y="14"/>
<rect fill="black" width="1" height="1" x="15" y="14"/>
<rect fill="black" width="1" height="1" x="16" y="14"/>
<rect fill="black" width="1" height="1" x="20" y="14"/>
<rect fill="black" width="1" height="1" x="21" y="14"/>
<rect fill="black" width="1" height="1" x="22" y="14"/>
<rect fill="black" width="1" height="1" x="23" y="14"/>
<rect fill="black" width="1" height="1" x="25" y="14"/>
<rect fill="black" width="1" height="1" x="8" y="15"/>
<rect fill="black" width="1" height="1" x="9" y="15"/>
<rect fill="black" width="1" height="1" x="10" y="15"/>
<rect fill="black" width="1" height="1" x="11" y="15"/>
<rect fill="black" width="1" height="1" x="12" y="15"/>
<rect fill="black" width="1" height="1" x="15" y="15"/>
<rect fill="black" width="1" height="1" x="16" y="15"/>
<rect fill="black" width="1" height="1" x="19" y="15"/>
<rect fill="black" width="1" height="1" x="20" y="15"/>
<rect fill="black" width="1" height="1" x="21" y="15"/>
<rect fill="black" width="1" height="1" x="23" y="15"/>
<rect fill="black" width="1" height="1" x="24" y="15"/>
<rect fill="black" width="1" height="1" x="25" y="15"/>
<rect fill="black" width="1" height="1" x="2" y="16"/>
<rect fill="black" width="1" height="1" x="3" y="16"/>
<rect fill="black" width="1" height="1" x="4" y="16"/>
<rect fill="black" width="1" height="1" x="6" y="16"/>
<rect fill="black" width="1" height="1" x="7" y="16"/>
<rect fill="black" width="1" height="1" x="9" y="16"/>
<rect fill="black" width="1" height="1" x="10" y="16"/>
<rect fill="black" width="1" height="1" x="12" y="16"/>
<rect fill="black" width="1" height="1" x="13" y="16"/>
<rect fill="black" width="1" height="1" x="17" y="16"/>
<rect fill="black" width="1" height="1" x="19" y="16"/>
<rect fill="black" width="1" height="1" x="26" y="16"/>
<rect fill="black" width="1" height="1" x="27" y="16"/>
<rect fill="black" width="1" height="1" x="0" y="17"/>
<rect fill="black" width="1" height="1" x="1" y="17"/>
<rect fill="black" width="1" height="1" x="4" y="17"/>
<rect fill="black" width="1" height="1" x="7" y="17"/>
<rect fill="black" width="1" height="1" x="10" y="17"/>
<rect fill="black" width="1" height="1" x="11" y="17"/>
<rect fill="black" width="1" height="1" x="13" y="17"/>
<rect fill="black" width="1" height="1" x="19" y="17"/>
<rect fill="black" width="1" height="1" x="20" y="17"/>
<rect fill="black" width="1" height="1" x="22" y="17"/>
<rect fill="black" width="1" height="1" x="23" y="17"/>
<rect fill="black" width="1" height="1" x="24" y="17"/>
<rect fill="black" width="1" height="1" x="25" y="17"/>
<rect fill="black" width="1" height="1" x="26" y="17"/>
<rect fill="black" width="1" height="1" x="27" y="17"/>
<rect fill="black" width="1" height="1" x="28" y="17"/>
<rect fill="black" width="1" height="1" x="0" y="18"/>
<rect fill="black" width="1" height="1" x="2" y="18"/>
<rect fill="black" width="1" height="1" x="4" y="18"/>
<rect fill="black" width="1" height="1" x="5" y="18"/>
<rect fill="black" width="1" height="1" x="6" y="18"/>
<rect fill="black" width="1" height="1" x="7" y="18"/>
<rect fill="black" width="1" height="1" x="14" y="18"/>
<rect fill="black" width="1" height="1" x="15" y="18"/>
<rect fill="black" width="1" height="1" x="17" y="18"/>
<rect fill="black" width="1" height="1" x="18" y="18"/>
<rect fill="black" width="1" height="1" x="20" y="18"/>
<rect fill="black" width="1" height="1" x="0" y="19"/>
<rect fill="black" width="1" height="1" x="2" y="19"/>
<rect fill="black" width="1" height="1" x="3" y="19"/>
<rect fill="black" width="1" height="1" x="4" y="19"/>
<rect fill="black" width="1" height="1" x="5" y="19"/>
<rect fill="black" width="1" height="1" x="7" y="19"/>
<rect fill="black" width="1" height="1" x="8" y="19"/>
<rect fill="black" width="1" height="1" x="9" y="19"/>
<rect fill="black" width="1" height="1" x="10" y="19"/>
<rect fill="black" width="1" height="1" x="12" y="19"/>
<rect fill="black" width="1" height="1" x="14" y="19"/>
<rect fill="black" width="1" height="1" x="15" y="19"/>
<rect fill="black" width="1" height="1" x="23" y="19"/>
<rect fill="black" width="1" height="1" x="25" y="19"/>
<rect fill="black" width="1" height="1" x="28" y="19"/>
<rect fill="black" width="1" height="1" x="0" y="20"/>
<rect fill="black" width="1" height="1" x="3" y="20"/>
<rect fill="black" width="1" height="1" x="4" y="20"/>
<rect fill="black" width="1" height="1" x="5" y="20"/>
<rect fill="black" width="1" height="1" x="6" y="20"/>
<rect fill="black" width="1" height="1" x="7" y="20"/>
<rect fill="black" width="1" height="1" x="8" y="20"/>
<rect fill="black" width="1" height="1" x="11" y="20"/>
<rect fill="black" width="1" height="1" x="12" y="20"/>
<rect fill="black" width="1" height="1" x="13" y="20"/>
<rect fill="black" width="1" height="1" x="14" y="20"/>
<rect fill="black" width="1" height="1" x="15" y="20"/>
<rect fill="black" width="1" height="1" x="16" y="20"/>
<rect fill="black" width="1" height="1" x="17" y="20"/>
<rect fill="black" width="1" height="1" x="18" y="20"/>
<rect fill="black" width="1" height="1" x="19" y="20"/>
<rect fill="black" width="1" height="1" x="20" y="20"/>
<rect fill="black" width="1" height="1" x="21" y="20"/>
<rect fill="black" width="1" height="1" x="22" y="20"/>
<rect fill="black" width="1" height="1" x="23" y="20"/>
<rect fill="black" width="1" height="1" x="24" y="20"/>
<rect fill="black" width="1" height="1" x="26" y="20"/>
<rect fill="black" width="1" height="1" x="28" y="20"/>
<rect fill="black" width="1" height="1" x="8" y="21"/>
<rect fill="black" width="1" height="1" x="9" y="21"/>
<rect fill="black" width="1" height="1" x="11" y="21"/>
<rect fill="black" width="1" height="1" x="16" y="21"/>
<rect fill="black" width="1" height="1" x="17" y="21"/>
<rect fill="black" width="1" height="1" x="18" y="21"/>
<rect fill="black" width="1" height="1" x="20" y="21"/>
<rect fill="black" width="1" height="1" x="24" y="21"/>
<rect fill="black" width="1" height="1" x="27" y="21"/>
<rect fill="black" width="1" height="1" x="28" y="21"/>
<rect fill="black" width="1" height="1" x="0" y="22"/>
<rect fill="black" width="1" height="1" x="1" y="22"/>
<rect fill="black" width="1" height="1" x="2" y="22"/>
<rect fill="black" width="1" height="1" x="3" y="22"/>
<rect fill="black" width="1" height="1" x="4" y="22"/>
<rect fill="black" width="1" height="1" x="5" y="22"/>
<rect fill="black" width="1" height="1" x="6" y="22"/>
<rect fill="black" width="1" height="1" x="8" y="22"/>
<rect fill="black" width="1" height="1" x="9" y="22"/>
<rect fill="black" width="1" height="1" x="12" y="22"/>
<rect fill="black" width="1" height="1" x="13" y="22"/>
<rect fill="black" width="1" height="1" x="15" y="22"/>
<rect fill="black" width="1" height="1" x="16" y="22"/>
<rect fill="black" width="1" height="1" x="17" y="22"/>
<rect fill="black" width="1" height="1" x="19" y="22"/>
<rect fill="black" width="1" height="1" x="20" y="22"/>
<rect fill="black" width="1" height="1" x="22" y="22"/>
<rect fill="black" width="1" height="1" x="24" y="22"/>
<rect fill="black" width="1" height="1" x="25" y="22"/>
<rect fill="black" width="1" height="1" x="0" y="23"/>
<rect fill="black" width="1" height="1" x="6" y="23"/>
<rect fill="black" width="1" height="1" x="9" y="23"/>
<rect fill="black" width="1" height="1" x="14" y="23"/>
<rect fill="black" width="1" height="1" x="15" y="23"/>
<rect fill="black" width="1" height="1" x="16" y="23"/>
<rect fill="black" width="1" height="1" x="19" y="23"/>
<rect fill="black" width="1" height="1" x="20" y="23"/>
<rect fill="black" width="1" height="1" x="24" y="23"/>
<rect fill="black" width="1" height="1" x="25" y="23"/>
<rect fill="black" width="1" height="1" x="0" y="24"/>
<rect fill="black" width="1" height="1" x="2" y="24"/>
<rect fill="black" width="1" height="1" x="3" y="24"/>
<rect fill="black" width="1" height="1" x="4" y="24"/>
<rect fill="black" width="1" height="1" x="6" y="24"/>
<rect fill="black" width="1" height="1" x="8" y="24"/>
<rect fill="black" width="1" height="1" x="9" y="24"/>
<rect fill="black" width="1" height="1" x="10" y="24"/>
<rect fill="black" width="1" height="1" x="12" y="24"/>
<rect fill="black" width="1" height="1" x="13" y="24"/>
<rect fill="black" width="1" height="1" x="14" y="24"/>
<rect fill="black" width="1" height="1" x="15" y="24"/>
<rect fill="black" width="1" height="1" x="17" y="24"/>
<rect fill="black" width="1" height="1" x="20" y="24"/>
<rect fill="black" width="1" height="1" x="21" y="24"/>
<rect fill="black" width="1" height="1" x="22" y="24"/>
<rect fill="black" width="1" height="1" x="23" y="24"/>
<rect fill="black" width="1" height="1" x="24" y="24"/>
<rect fill="black" width="1" height="1" x="25" y="24"/>
<rect fill="black" width="1" height="1" x="26" y="24"/>
<rect fill="black" width="1" height="1" x="27" y="24"/>
<rect fill="black" width="1" height="1" x="0" y="25"/>
<rect fill="black" width="1" height="1" x="2" y="25"/>
<rect fill="black" width="1" height="1" x="3" y="25"/>
<rect fill="black" width="1" height="1" x="4" y="25"/>
<rect fill="black" width="1" height="1" x="6" y="25"/>
<rect fill="black" width="1" height="1" x="8" y="25"/>
<rect fill="black" width="1" height="1" x="9" y="25"/>
<rect fill="black" width="1" height="1" x="11" y="25"/>
<rect fill="black" width="1" height="1" x="14" y="25"/>
<rect fill="black" width="1" height="1" x="16" y="25"/>
<rect fill="black" width="1" height="1" x="17" y="25"/>
<rect fill="black" width="1" height="1" x="18" y="25"/>
<rect fill="black" width="1" height="1" x="20" y="25"/>
<rect fill="black" width="1" height="1" x="28" y="25"/>
<rect fill="black" width="1" height="1" x="0" y="26"/>
<rect fill="black" width="1" height="1" x="2" y="26"/>
<rect fill="black" width="1" height="1" x="3" y="26"/>
<rect fill="black" width="1" height="1" x="4" y="26"/>
<rect fill="black" width="1" height="1" x="6" y="26"/>
<rect fill="black" width="1" height="1" x="8" y="26"/>
<rect fill="black" width="1" height="1" x="10" y="26"/>
<rect fill="black" width="1" height="1" x="13" y="26"/>
<rect fill="black" width="1" height="1" x="15" y="26"/>
<rect fill="black" width="1" height="1" x="16" y="26"/>
<rect fill="black" width="1" height="1" x="17" y="26"/>
<rect fill="black" width="1" height="1" x="18" y="26"/>
<rect fill="black" width="1" height="1" x="19" y="26"/>
<rect fill="black" width="1" height="1" x="20" y="26"/>
<rect fill="black" width="1" height="1" x="21" y="26"/>
<rect fill="black" width="1" height="1" x="22" y="26"/>
<rect fill="black" width="1" height="1" x="24" y="26"/>
<rect fill="black" width="1" height="1" x="26" y="26"/>
<rect fill="black" width="1" height="1" x="27" y="26"/>
<rect fill="black" width="1" height="1" x="0" y="27"/>
<rect fill="black" width="1" height="1" x="6" y="27"/>
<rect fill="black" width="1" height="1" x="8" y="27"/>
<rect fill="black" width="1" height="1" x="9" y="27"/>
<rect fill="black" width="1" height="1" x="15" y="27"/>
<rect fill="black" width="1" height="1" x="16" y="27"/>
<rect fill="black" width="1" height="1" x="20" y="27"/>
<rect fill="black" width="1" height="1" x="21" y="27"/>
<rect fill="black" width="1" height="1" x="24" y="27"/>
<rect fill="black" width="1" height="1" x="25" y="27"/>
<rect fill="black" width="1" height="1" x="27" y="27"/>
<rect fill="black" width="1" height="1" x="0" y="28"/>
<rect fill="black" width="1" height="1" x="1" y="28"/>
<rect fill="black" width="1" height="1" x="2" y="28"/>
<rect fill="black" width="1" height="1" x="3" y="28"/>
<rect fill="black" width="1" height="1" x="4" y="28"/>
<rect fill="black" width="1" height="1" x="5" y="28"/>
<rect fill="black" width="1" height="1" x="6" y="28"/>
<rect fill="black" width="1" height="1" x="8" y="28"/>
<rect fill="black" width="1" height="1" x="9" y="28"/>
<rect fill="black" width="1" height="1" x="10" y="28"/>
<rect fill="black" width="1" height="1" x="12" y="28"/>
<rect fill="black" width="1" height="1" x="13" y="28"/>
<rect fill="black" width="1" height="1" x="14" y="28"/>
<rect fill="black" width="1" height="1" x="15" y="28"/>
<rect fill="black" width="1" height="1" x="17" y="28"/>
<rect fill="black" width="1" height="1" x="21" y="28"/>
<rect fill="black" width="1" height="1" x="22" y="28"/>
<rect fill="black" width="1" height="1" x="23" y="28"/>
<rect fill="black" width="1" height="1" x="24" y="28"/>
<rect fill="black" width="1" height="1" x="25" y="28"/>
<rect fill="black" width="1" height="1" x="26" y="28"/>
</g>
</svg>
